<mxfile host="Electron" agent="Mozilla/5.0 (Windows NT 10.0; Win64; x64) AppleWebKit/537.36 (KHTML, like Gecko) draw.io/26.2.2 Chrome/134.0.6998.178 Electron/35.1.2 Safari/537.36" version="26.2.2">
  <diagram name="Pagina-1" id="Fot0jgCEA0sip8-DjU5e">
    <mxGraphModel dx="985" dy="580" grid="1" gridSize="10" guides="1" tooltips="1" connect="1" arrows="1" fold="1" page="1" pageScale="1" pageWidth="827" pageHeight="1169" math="1" shadow="0">
      <root>
        <mxCell id="0" />
        <mxCell id="1" parent="0" />
        <mxCell id="RWBmR8ykF7faoN9Y3Qws-11" value="$$\text{d}\ell = \sqrt{(\mathrm{d}x^1)^2 + (\mathrm{d}x^2)^2}$$" style="text;html=1;align=center;verticalAlign=middle;resizable=0;points=[];autosize=1;strokeColor=none;fillColor=none;fontColor=#3399FF;" parent="1" vertex="1">
          <mxGeometry x="165" y="410" width="360" height="30" as="geometry" />
        </mxCell>
        <mxCell id="RWBmR8ykF7faoN9Y3Qws-1" value="" style="endArrow=classic;html=1;rounded=0;" parent="1" edge="1">
          <mxGeometry width="50" height="50" relative="1" as="geometry">
            <mxPoint x="320" y="360" as="sourcePoint" />
            <mxPoint x="560" y="360" as="targetPoint" />
          </mxGeometry>
        </mxCell>
        <mxCell id="RWBmR8ykF7faoN9Y3Qws-2" value="" style="endArrow=classic;html=1;rounded=0;" parent="1" edge="1">
          <mxGeometry width="50" height="50" relative="1" as="geometry">
            <mxPoint x="320" y="360" as="sourcePoint" />
            <mxPoint x="320" y="160" as="targetPoint" />
          </mxGeometry>
        </mxCell>
        <mxCell id="RWBmR8ykF7faoN9Y3Qws-3" value="" style="endArrow=classic;html=1;rounded=0;" parent="1" edge="1">
          <mxGeometry width="50" height="50" relative="1" as="geometry">
            <mxPoint x="320" y="360" as="sourcePoint" />
            <mxPoint x="200" y="480" as="targetPoint" />
          </mxGeometry>
        </mxCell>
        <mxCell id="RWBmR8ykF7faoN9Y3Qws-4" value="$$x^0$$" style="text;html=1;align=center;verticalAlign=middle;resizable=0;points=[];autosize=1;strokeColor=none;fillColor=none;" parent="1" vertex="1">
          <mxGeometry x="310" y="150" width="70" height="30" as="geometry" />
        </mxCell>
        <mxCell id="RWBmR8ykF7faoN9Y3Qws-5" value="$$x^2$$" style="text;html=1;align=center;verticalAlign=middle;resizable=0;points=[];autosize=1;strokeColor=none;fillColor=none;" parent="1" vertex="1">
          <mxGeometry x="530" y="330" width="70" height="30" as="geometry" />
        </mxCell>
        <mxCell id="RWBmR8ykF7faoN9Y3Qws-6" value="$$x^1$$" style="text;html=1;align=center;verticalAlign=middle;resizable=0;points=[];autosize=1;strokeColor=none;fillColor=none;" parent="1" vertex="1">
          <mxGeometry x="150" y="460" width="70" height="30" as="geometry" />
        </mxCell>
        <mxCell id="RWBmR8ykF7faoN9Y3Qws-14" value="" style="endArrow=none;html=1;rounded=0;strokeColor=#000000;" parent="1" edge="1">
          <mxGeometry width="50" height="50" relative="1" as="geometry">
            <mxPoint x="350" y="385" as="sourcePoint" />
            <mxPoint x="400" y="345" as="targetPoint" />
          </mxGeometry>
        </mxCell>
        <mxCell id="RWBmR8ykF7faoN9Y3Qws-16" value="" style="endArrow=none;html=1;rounded=0;strokeColor=#3399FF;" parent="1" edge="1">
          <mxGeometry width="50" height="50" relative="1" as="geometry">
            <mxPoint x="350" y="385" as="sourcePoint" />
            <mxPoint x="370" y="405" as="targetPoint" />
          </mxGeometry>
        </mxCell>
        <mxCell id="RWBmR8ykF7faoN9Y3Qws-17" value="$$\psi$$" style="text;html=1;align=center;verticalAlign=middle;resizable=0;points=[];autosize=1;strokeColor=none;fillColor=none;" parent="1" vertex="1">
          <mxGeometry x="346" y="367" width="70" height="30" as="geometry" />
        </mxCell>
        <mxCell id="RWBmR8ykF7faoN9Y3Qws-18" value="" style="endArrow=none;html=1;rounded=0;curved=1;" parent="1" edge="1">
          <mxGeometry width="50" height="50" relative="1" as="geometry">
            <mxPoint x="362" y="396" as="sourcePoint" />
            <mxPoint x="362" y="376" as="targetPoint" />
            <Array as="points">
              <mxPoint x="372" y="386" />
            </Array>
          </mxGeometry>
        </mxCell>
        <mxCell id="RWBmR8ykF7faoN9Y3Qws-19" value="" style="endArrow=none;html=1;rounded=0;dashed=1;" parent="1" edge="1">
          <mxGeometry width="50" height="50" relative="1" as="geometry">
            <mxPoint x="350" y="385" as="sourcePoint" />
            <mxPoint x="295" y="385" as="targetPoint" />
          </mxGeometry>
        </mxCell>
        <mxCell id="RWBmR8ykF7faoN9Y3Qws-20" value="" style="endArrow=none;html=1;rounded=0;dashed=1;" parent="1" edge="1">
          <mxGeometry width="50" height="50" relative="1" as="geometry">
            <mxPoint x="375" y="360" as="sourcePoint" />
            <mxPoint x="350" y="384.9" as="targetPoint" />
          </mxGeometry>
        </mxCell>
        <mxCell id="RWBmR8ykF7faoN9Y3Qws-21" value="" style="endArrow=none;html=1;rounded=0;dashed=1;" parent="1" edge="1">
          <mxGeometry width="50" height="50" relative="1" as="geometry">
            <mxPoint x="369.5" y="404.89" as="sourcePoint" />
            <mxPoint x="275" y="405" as="targetPoint" />
          </mxGeometry>
        </mxCell>
        <mxCell id="RWBmR8ykF7faoN9Y3Qws-22" value="" style="endArrow=none;html=1;rounded=0;dashed=1;" parent="1" edge="1">
          <mxGeometry width="50" height="50" relative="1" as="geometry">
            <mxPoint x="420" y="360" as="sourcePoint" />
            <mxPoint x="369.25" y="405" as="targetPoint" />
          </mxGeometry>
        </mxCell>
      </root>
    </mxGraphModel>
  </diagram>
</mxfile>
